HIERARCHY
ROOT root
{
	OFFSET	0	13.1	24.9
	CHANNELS 6  Xposition Yposition Zposition Xrotation Yrotation Zrotation
	JOINT spine_1
	{
		OFFSET	0	9.99999	0
		CHANNELS 3  Xrotation Yrotation Zrotation
		JOINT spine_2
		{
			OFFSET	0	112	-10
			CHANNELS 3  Xrotation Yrotation Zrotation
			JOINT spine_3
			{
				OFFSET	0	206.5	19.3
				CHANNELS 3  Xrotation Yrotation Zrotation
				JOINT spine_4
				{
					OFFSET	0	110.4	14.6
					CHANNELS 3  Xrotation Yrotation Zrotation
					JOINT neck_1
					{
						OFFSET	0	71.8	-50.3
						CHANNELS 3  Xrotation Yrotation Zrotation
						JOINT neck_2
						{
							OFFSET	0	86.2	-25.8
							CHANNELS 3  Xrotation Yrotation Zrotation
							JOINT head_ee
							{
								OFFSET	0	179.8	-8.7
								CHANNELS 3  Xrotation Yrotation Zrotation
								End Site
								{
									OFFSET	1	0	0
								}
							}
						}
					}
					JOINT left_clavicle
					{
						OFFSET	-43.2	22.4	-70.8
						CHANNELS 3  Xrotation Yrotation Zrotation
						JOINT left_shoulder
						{
							OFFSET	-93.9	-5.79999	48.7
							CHANNELS 3  Xrotation Yrotation Zrotation
							JOINT left_elbow
							{
								OFFSET	-291.4	-30.8	15.2
								CHANNELS 3  Xrotation Yrotation Zrotation
								JOINT left_lowarm_twist
								{
									OFFSET	-110.7	-3.89999	13.6
									CHANNELS 3  Xrotation Yrotation Zrotation
									JOINT left_hand
									{
										OFFSET	-110.7	-3.89999	13.6
										CHANNELS 3  Xrotation Yrotation Zrotation
										JOINT left_ee
										{
											OFFSET	-80.8	-5.10001	12.1
											CHANNELS 3  Xrotation Yrotation Zrotation
											End Site
											{
												OFFSET	1	0	0
											}
										}
									}
								}
							}
						}
					}
					JOINT right_clavicle
					{
						OFFSET	43.2	22.4	-70.8
						CHANNELS 3  Xrotation Yrotation Zrotation
						JOINT right_shoulder
						{
							OFFSET	93.9	-5.79999	48.7
							CHANNELS 3  Xrotation Yrotation Zrotation
							JOINT right_elbow
							{
								OFFSET	291.4	-30.8	15.2
								CHANNELS 3  Xrotation Yrotation Zrotation
								JOINT right_lowarm_twist
								{
									OFFSET	110.7	-3.89999	13.6
									CHANNELS 3  Xrotation Yrotation Zrotation
									JOINT right_hand
									{
										OFFSET	110.7	-3.89999	13.6
										CHANNELS 3  Xrotation Yrotation Zrotation
										JOINT right_ee
										{
											OFFSET	80.8	-5.10001	12.1
											CHANNELS 3  Xrotation Yrotation Zrotation
											End Site
											{
												OFFSET	1	0	0
											}
										}
									}
								}
							}
						}
					}
				}
			}
		}
	}
	JOINT left_hip
	{
		OFFSET	-82.8	-127.5	0.300001
		CHANNELS 3  Xrotation Yrotation Zrotation
		JOINT left_knee
		{
			OFFSET	-28.2	-396.7	2.2
			CHANNELS 3  Xrotation Yrotation Zrotation
			JOINT left_ankle
			{
				OFFSET	-11.7	-411.3	35.4
				CHANNELS 3  Xrotation Yrotation Zrotation
				JOINT left_toes
				{
					OFFSET	0	-60	-88.6
					CHANNELS 3  Xrotation Yrotation Zrotation
					JOINT left_foot_ee
					{
						OFFSET	-22.5	-16.5	-42.2
						CHANNELS 3  Xrotation Yrotation Zrotation
						End Site
						{
							OFFSET	1	0	0
						}
					}
				}
			}
		}
	}
	JOINT right_hip
	{
		OFFSET	82.8	-127.5	0.300001
		CHANNELS 3  Xrotation Yrotation Zrotation
		JOINT right_knee
		{
			OFFSET	28.2	-396.7	2.2
			CHANNELS 3  Xrotation Yrotation Zrotation
			JOINT right_ankle
			{
				OFFSET	11.7	-411.3	35.4
				CHANNELS 3  Xrotation Yrotation Zrotation
				JOINT right_toes
				{
					OFFSET	0	-60	-88.6
					CHANNELS 3  Xrotation Yrotation Zrotation
					JOINT right_foot_ee
					{
						OFFSET	22.5	-16.5	-42.2
						CHANNELS 3  Xrotation Yrotation Zrotation
						End Site
						{
							OFFSET	1	0	0
						}
					}
				}
			}
		}
	}
}
MOTION
Frames: 12
Frame Time: 0.02
2879.01656832 694.849 -1613.54301795 -105.976194026 81.0362586428 100.758653915 3.22434 0.362251 4.58 3.23601 0.070393 4.59374 3.23721 -0.642069 4.54928 3.20835 0.0836767 4.59351 -13.6921 4.66668 -6.72762 -13.6844 13.0349 -4.96435 -0.0 0.0 -0.0 -6.27195 3.18839 -11.5499 14.8505 -31.816 67.5854 1.58728 -38.1749 0.549286 10.1279 0.245246 -1.26882 1.18266 18.0224 14.6277 -0.0 0.0 -0.0 10.9826 1.3262 -21.7804 -22.2862 18.0194 -67.6353 0.367498 10.3178 -0.0331792 11.6893 -0.262957 1.46748 -0.732193 12.2142 10.1761 0.0 0.0 0.0 18.1713 -1.80718 6.92697 -4.57223 0.161065 0.68303 20.1878 -12.2369 -2.91805 -24.6898 0.0 0.0 -0.0 0.0 -0.0 30.2824 -0.149973 7.27762 -62.2775 2.45087 -8.77147 31.4268 -14.3611 4.08199 24.2126 -0.0 -0.0 0.0 0.0 0.0 
2868.46110973 697.147 -1600.44227429 -118.850940641 80.3243322785 113.926341973 3.25398 0.186996 4.48661 3.26517 -0.098585 4.48942 3.25302 -0.79206 4.42024 3.22578 -0.0847598 4.4897 -14.4829 4.33816 -7.32739 -14.4609 12.7004 -5.55267 -0.0 0.0 -0.0 -5.45932 2.29431 -10.1698 16.8746 -32.3557 66.7188 1.6105 -38.5798 0.563705 10.7981 0.253511 -1.35403 0.865156 16.1049 11.9704 -0.0 0.0 -0.0 10.5715 0.726543 -20.8809 -24.8896 17.6674 -66.859 0.365441 10.2613 -0.0328117 11.0734 -0.256617 1.38905 -0.747913 11.7432 10.0829 0.0 0.0 0.0 16.8039 -1.40915 7.32581 -3.53887 0.129444 0.527595 19.2664 -12.5122 -2.80279 -24.2275 0.0 0.0 -0.0 0.0 -0.0 32.7308 1.25697 6.99352 -61.3444 2.34689 -8.67187 30.0173 -15.866 3.94635 23.8205 -0.0 -0.0 0.0 0.0 0.0 
2859.16888801 698.338 -1582.83856213 -126.876699226 79.4066516232 122.278205436 3.31944 0.119977 4.37225 3.33006 -0.158214 4.37103 3.31359 -0.828191 4.29492 3.28788 -0.140173 4.37165 -14.5258 4.27313 -7.53935 -14.4956 12.6998 -5.77139 -0.0 0.0 -0.0 -4.71907 1.02352 -8.99325 17.9714 -32.2163 65.3679 1.64401 -39.1562 0.584733 11.8487 0.26446 -1.48778 0.742128 14.521 10.6222 -0.0 0.0 -0.0 10.2744 0.634756 -20.2553 -27.0097 16.9901 -67.1693 0.301139 8.48473 -0.0223382 10.9692 -0.255461 1.3758 -0.879321 10.9082 10.6264 0.0 0.0 0.0 15.8313 -1.74331 7.67374 -4.68386 0.164312 0.699853 20.1514 -13.7531 -2.94157 -23.167 0.0 0.0 -0.0 0.0 -0.0 34.3599 0.42519 7.84338 -54.7913 1.66456 -7.92714 28.5376 -16.4477 3.78874 24.0488 -0.0 -0.0 0.0 0.0 0.0 
2847.89430567 698.888 -1568.19459986 -132.329055864 78.2712050999 127.424011512 3.44644 0.0549474 4.32088 3.4568 -0.219853 4.31565 3.43559 -0.871686 4.23256 3.41065 -0.192944 4.31693 -14.2851 4.26896 -7.39431 -14.2548 12.6292 -5.66108 -0.0 0.0 -0.0 -4.25928 -0.0029627 -8.29417 19.1236 -32.3977 63.9845 1.67959 -39.7579 0.607345 11.7505 0.26354 -1.47526 0.602372 13.7997 9.46886 -0.0 0.0 -0.0 10.1227 0.270634 -19.9221 -29.2113 16.4024 -67.2613 0.277949 7.83981 -0.0190457 10.4482 -0.249321 1.30954 -0.911121 10.3006 10.5839 0.0 0.0 0.0 14.8116 -1.72506 8.28897 -4.32763 0.153833 0.646187 20.8927 -14.3916 -3.05094 -22.776 0.0 0.0 -0.0 0.0 -0.0 36.2766 1.89742 8.17956 -49.7232 1.19815 -7.30128 25.3056 -17.8694 3.43161 23.1379 -0.0 -0.0 0.0 0.0 0.0 
2820.74328376 699.179 -1551.0870852 -136.167466125 77.178362373 130.533780558 3.88631 0.124626 4.35944 3.89687 -0.152762 4.35855 3.87934 -0.778451 4.29132 3.85367 -0.0916207 4.36026 -14.7308 4.11917 -6.9849 -14.7144 12.052 -5.27161 -0.0 0.0 -0.0 -2.77686 -1.72158 -5.67055 20.5727 -32.2822 61.8353 1.73193 -40.6242 0.641117 12.4972 0.269992 -1.57042 0.121978 11.2846 5.43991 -0.0 0.0 -0.0 9.59513 -0.563762 -18.7969 -32.1204 15.7456 -67.3737 0.249762 7.05324 -0.0153926 9.95051 -0.242892 1.24629 -0.927622 9.48171 10.3448 0.0 0.0 0.0 12.5711 -1.68149 9.09138 -4.46982 0.158056 0.667601 22.4073 -15.3926 -3.26791 -21.287 0.0 0.0 -0.0 0.0 -0.0 37.8645 3.91231 9.08605 -40.1822 0.478398 -6.02376 21.0334 -19.5919 2.92782 21.8778 -0.0 -0.0 0.0 0.0 0.0 
2822.17897539 699.179 -1546.8446046 -138.169191119 76.6769347652 132.588728937 3.88631 0.124626 4.35944 3.89687 -0.152762 4.35855 3.87934 -0.778451 4.29132 3.85367 -0.0916207 4.36026 -14.7308 4.11917 -6.9849 -14.7144 12.052 -5.27161 -0.0 0.0 -0.0 -2.77686 -1.72158 -5.67055 20.5727 -32.2822 61.8353 1.73193 -40.6242 0.641117 12.4972 0.269992 -1.57042 0.121978 11.2846 5.43991 -0.0 0.0 -0.0 9.59513 -0.563762 -18.7969 -32.1204 15.7456 -67.3737 0.249762 7.05324 -0.0153926 9.95051 -0.242892 1.24629 -0.927622 9.48171 10.3448 0.0 0.0 0.0 12.5711 -1.68149 9.09138 -4.46982 0.158056 0.667601 22.4073 -15.3926 -3.26791 -21.287 0.0 0.0 -0.0 0.0 -0.0 37.8645 3.91231 9.08605 -40.1822 0.478398 -6.02376 21.0334 -19.5919 2.92782 21.8778 -0.0 -0.0 0.0 0.0 0.0 
2808.80906687 698.11 -1535.02241485 -139.391717304 76.3169753173 133.053178159 4.00897 0.189941 4.43926 4.01992 -0.0926414 4.44235 4.00627 -0.721171 4.38451 3.97946 -0.0203793 4.44327 -16.4022 4.10788 -6.76487 -16.4171 11.7362 -4.89785 -0.0 0.0 -0.0 -2.62297 -2.45634 -5.48525 21.5667 -31.9845 60.8558 1.76893 -41.2235 0.665356 12.7119 0.271618 -1.5978 0.24156 10.3548 5.83666 -0.0 0.0 -0.0 9.15384 -1.52524 -17.8591 -33.9269 15.2844 -67.3223 0.239615 6.7694 -0.0141715 9.69479 -0.239375 1.21381 -0.950939 8.83598 10.2261 0.0 0.0 0.0 11.5496 -1.64488 10.4705 -4.90078 0.170529 0.732564 22.545 -15.6365 -3.29122 -21.4394 0.0 0.0 -0.0 0.0 -0.0 39.456 4.68454 9.14152 -35.5846 0.210016 -5.37032 19.2392 -20.3279 2.70658 21.0366 -0.0 -0.0 0.0 0.0 0.0 
2795.05007025 695.382 -1530.87731141 -138.990082474 76.2084366519 131.811702032 4.31272 0.228888 4.51816 4.32407 -0.0587787 4.52356 4.31183 -0.675214 4.47337 4.28391 0.0389948 4.52377 -17.582 3.95434 -7.09944 -17.5978 11.5054 -5.15828 -0.0 0.0 -0.0 -1.54264 -3.00011 -3.41706 22.482 -31.3882 60.3739 1.78194 -41.4317 0.673948 12.441 0.269549 -1.56325 -0.347457 8.11777 1.1259 -0.0 0.0 -0.0 8.72354 -3.22248 -16.9264 -35.4696 15.0617 -66.5911 0.27365 7.72003 -0.0184637 9.10347 -0.230688 1.13878 -0.779729 8.62231 8.96179 0.0 0.0 0.0 9.90597 -2.03064 12.0516 -2.87427 0.107627 0.427931 25.266 -16.0177 -3.64081 -20.82 0.0 0.0 -0.0 0.0 -0.0 39.8358 6.97586 8.74073 -29.5678 -0.0603781 -4.48712 17.6724 -22.6251 2.52748 19.9676 -0.0 -0.0 0.0 0.0 0.0 
2795.29366153 695.382 -1530.20692367 -139.257495269 76.1323772551 132.087098212 4.31272 0.228888 4.51816 4.32407 -0.0587787 4.52356 4.31183 -0.675214 4.47337 4.28391 0.0389948 4.52377 -17.582 3.95434 -7.09944 -17.5978 11.5054 -5.15828 -0.0 0.0 -0.0 -1.54264 -3.00011 -3.41706 22.482 -31.3882 60.3739 1.78194 -41.4317 0.673948 12.441 0.269549 -1.56325 -0.347457 8.11777 1.1259 -0.0 0.0 -0.0 8.72354 -3.22248 -16.9264 -35.4696 15.0617 -66.5911 0.27365 7.72003 -0.0184637 9.10347 -0.230688 1.13878 -0.779729 8.62231 8.96179 0.0 0.0 0.0 9.90597 -2.03064 12.0516 -2.87427 0.107627 0.427931 25.266 -16.0177 -3.64081 -20.82 0.0 0.0 -0.0 0.0 -0.0 39.8358 6.97586 8.74073 -29.5678 -0.0603781 -4.48712 17.6724 -22.6251 2.52748 19.9676 -0.0 -0.0 0.0 0.0 0.0 
2781.12184098 691.814 -1531.63968696 -134.448641759 77.2227362215 126.443708854 4.31619 0.458086 4.63372 4.32812 0.162628 4.65343 4.33331 -0.471217 4.63241 4.30347 0.265484 4.6487 -18.6899 4.08981 -7.04385 -18.7294 11.6124 -4.95279 -0.0 0.0 -0.0 -1.19248 -4.31306 -2.90151 23.1844 -30.182 59.1308 1.8648 -42.7265 0.729482 10.9037 0.254722 -1.36746 -0.775627 8.75012 -1.36962 -0.0 0.0 -0.0 8.40199 -4.55739 -16.2371 -36.7436 16.5422 -66.0617 0.294952 8.31289 -0.0214345 9.12854 -0.231073 1.14196 -0.533283 9.72589 7.75454 0.0 0.0 0.0 9.54053 -2.22047 12.7063 -3.34669 0.123254 0.498751 26.1019 -15.496 -3.72847 -21.3972 0.0 0.0 -0.0 0.0 -0.0 38.3297 5.30418 8.72074 -15.897 -0.321931 -2.41052 10.1365 -22.9256 1.49119 16.868 -0.0 -0.0 0.0 0.0 0.0 
2765.11643276 693.126 -1529.31966386 -132.049320576 77.1805609046 123.867352042 4.50202 0.513221 4.70397 4.5143 0.213197 4.72703 4.523 -0.415346 4.7136 4.49217 0.333438 4.72008 -19.9505 4.09251 -7.01348 -20.0069 11.4581 -4.81382 -0.0 0.0 -0.0 -0.305632 -4.24101 -1.1156 23.5438 -29.4394 58.6405 1.94379 -43.9123 0.783674 12.078 0.266523 -1.517 -0.787176 7.82246 -1.8476 -0.0 0.0 -0.0 8.166 -4.71481 -15.7743 -36.5833 14.9383 -67.6597 0.238609 6.74123 -0.0140532 8.44069 -0.220032 1.05479 -0.618824 8.17908 7.67308 0.0 0.0 0.0 8.84383 -3.26154 12.8489 -2.60538 0.098471 0.387681 27.3511 -16.6708 -3.90985 -21.0855 0.0 0.0 -0.0 0.0 -0.0 36.0553 6.31983 9.58561 -7.40589 -0.233326 -1.11185 4.34877 -20.8711 0.644889 16.0794 -0.0 -0.0 0.0 0.0 0.0 
2732.90080353 690.27 -1533.24420726 -137.738559474 76.3235087096 128.871668266 4.62422 0.650438 5.02915 4.63823 0.329521 5.06024 4.65669 -0.332104 5.06007 4.62129 0.470164 5.04914 -21.0896 4.177 -7.21561 -21.1612 11.5864 -4.87135 -0.0 0.0 -0.0 0.340056 -4.75517 0.115962 24.0018 -28.4089 58.0056 2.03506 -45.2261 0.847728 11.6035 0.262123 -1.45654 -1.41046 6.75415 -6.38591 -0.0 0.0 -0.0 7.90173 -7.38147 -15.1494 -37.6323 14.8262 -68.4786 0.211032 5.96811 -0.0110008 7.42238 -0.201767 0.925994 -0.440933 7.51354 6.17718 0.0 0.0 0.0 6.30833 -4.61431 12.7175 -2.45745 0.0933537 0.365554 32.0148 -17.3729 -4.46062 -20.6446 0.0 0.0 -0.0 0.0 -0.0 33.6674 7.64806 9.81145 7.06211 0.354524 1.02462 -3.54543 -19.3231 -0.53229 13.3752 -0.0 -0.0 0.0 0.0 0.0 
